<mxfile host="65bd71144e">
    <diagram id="wD-VeWINSP7eyTfWzriU" name="Page-1">
        <mxGraphModel dx="1766" dy="531" grid="1" gridSize="10" guides="1" tooltips="1" connect="1" arrows="1" fold="1" page="1" pageScale="1" pageWidth="827" pageHeight="1169" math="0" shadow="0">
            <root>
                <mxCell id="0"/>
                <mxCell id="1" parent="0"/>
                <mxCell id="2" value="" style="whiteSpace=wrap;html=1;" parent="1" vertex="1">
                    <mxGeometry x="420" y="90" width="520" height="380" as="geometry"/>
                </mxCell>
                <mxCell id="17" style="edgeStyle=none;html=1;exitX=1;exitY=0.75;exitDx=0;exitDy=0;entryX=0;entryY=0.75;entryDx=0;entryDy=0;" parent="1" source="4" target="5" edge="1">
                    <mxGeometry relative="1" as="geometry"/>
                </mxCell>
                <mxCell id="4" value="String&lt;br&gt;window&lt;br&gt;foo:0xa00&lt;br&gt;fn:0xb00" style="whiteSpace=wrap;html=1;" parent="1" vertex="1">
                    <mxGeometry x="430" y="140" width="120" height="60" as="geometry"/>
                </mxCell>
                <mxCell id="5" value="" style="whiteSpace=wrap;html=1;" parent="1" vertex="1">
                    <mxGeometry x="590" y="140" width="150" height="60" as="geometry"/>
                </mxCell>
                <mxCell id="6" value="GO (0x100)" style="text;html=1;align=center;verticalAlign=middle;resizable=0;points=[];autosize=1;strokeColor=none;" parent="1" vertex="1">
                    <mxGeometry x="440" y="120" width="80" height="20" as="geometry"/>
                </mxCell>
                <mxCell id="8" value="" style="whiteSpace=wrap;html=1;" parent="1" vertex="1">
                    <mxGeometry x="230" y="60" width="170" height="340" as="geometry"/>
                </mxCell>
                <mxCell id="9" value="ECStack&lt;br&gt;" style="text;html=1;align=center;verticalAlign=middle;resizable=0;points=[];autosize=1;strokeColor=none;" parent="1" vertex="1">
                    <mxGeometry x="230" y="40" width="60" height="20" as="geometry"/>
                </mxCell>
                <mxCell id="10" value="VO:GO" style="whiteSpace=wrap;html=1;" parent="1" vertex="1">
                    <mxGeometry x="250" y="310" width="140" height="60" as="geometry"/>
                </mxCell>
                <mxCell id="11" value="全局上下文" style="text;html=1;align=center;verticalAlign=middle;resizable=0;points=[];autosize=1;strokeColor=none;" parent="1" vertex="1">
                    <mxGeometry x="250" y="290" width="80" height="20" as="geometry"/>
                </mxCell>
                <mxCell id="12" value="foo 函数对象 0xa00" style="text;html=1;align=center;verticalAlign=middle;resizable=0;points=[];autosize=1;strokeColor=none;" parent="1" vertex="1">
                    <mxGeometry x="590" y="120" width="120" height="20" as="geometry"/>
                </mxCell>
                <mxCell id="15" style="edgeStyle=none;html=1;" parent="1" source="13" target="4" edge="1">
                    <mxGeometry relative="1" as="geometry"/>
                </mxCell>
                <mxCell id="13" value="parentScope:0x100" style="whiteSpace=wrap;html=1;" parent="1" vertex="1">
                    <mxGeometry x="600" y="150" width="120" height="20" as="geometry"/>
                </mxCell>
                <mxCell id="14" value="函数执行器" style="whiteSpace=wrap;html=1;" parent="1" vertex="1">
                    <mxGeometry x="600" y="170" width="120" height="20" as="geometry"/>
                </mxCell>
                <mxCell id="36" style="edgeStyle=none;html=1;exitX=1;exitY=0;exitDx=0;exitDy=0;entryX=0.25;entryY=1;entryDx=0;entryDy=0;" edge="1" parent="1" source="18" target="34">
                    <mxGeometry relative="1" as="geometry"/>
                </mxCell>
                <mxCell id="18" value="" style="whiteSpace=wrap;html=1;" parent="1" vertex="1">
                    <mxGeometry x="592" y="240" width="150" height="60" as="geometry"/>
                </mxCell>
                <mxCell id="19" value="bar 函数对象 0xb00" style="text;html=1;align=center;verticalAlign=middle;resizable=0;points=[];autosize=1;strokeColor=none;" parent="1" vertex="1">
                    <mxGeometry x="592" y="220" width="120" height="20" as="geometry"/>
                </mxCell>
                <mxCell id="20" value="parentScope:0x100" style="whiteSpace=wrap;html=1;" parent="1" vertex="1">
                    <mxGeometry x="602" y="250" width="120" height="20" as="geometry"/>
                </mxCell>
                <mxCell id="21" value="函数执行器" style="whiteSpace=wrap;html=1;" parent="1" vertex="1">
                    <mxGeometry x="602" y="270" width="120" height="20" as="geometry"/>
                </mxCell>
                <mxCell id="31" style="edgeStyle=none;html=1;exitX=1;exitY=0.75;exitDx=0;exitDy=0;entryX=0;entryY=0;entryDx=0;entryDy=0;" parent="1" source="25" target="27" edge="1">
                    <mxGeometry relative="1" as="geometry"/>
                </mxCell>
                <mxCell id="25" value="" style="whiteSpace=wrap;html=1;" parent="1" vertex="1">
                    <mxGeometry x="250" y="210" width="140" height="70" as="geometry"/>
                </mxCell>
                <mxCell id="26" value="FEC foo" style="text;html=1;align=center;verticalAlign=middle;resizable=0;points=[];autosize=1;strokeColor=none;" parent="1" vertex="1">
                    <mxGeometry x="250" y="190" width="60" height="20" as="geometry"/>
                </mxCell>
                <mxCell id="27" value="" style="whiteSpace=wrap;html=1;" parent="1" vertex="1">
                    <mxGeometry x="430" y="305" width="170" height="70" as="geometry"/>
                </mxCell>
                <mxCell id="28" value="foo函数对象(0xa00)" style="text;html=1;align=center;verticalAlign=middle;resizable=0;points=[];autosize=1;strokeColor=none;" parent="1" vertex="1">
                    <mxGeometry x="430" y="280" width="120" height="20" as="geometry"/>
                </mxCell>
                <mxCell id="32" style="edgeStyle=none;html=1;exitX=0.75;exitY=0;exitDx=0;exitDy=0;entryX=0.629;entryY=1.033;entryDx=0;entryDy=0;entryPerimeter=0;" parent="1" source="29" target="4" edge="1">
                    <mxGeometry relative="1" as="geometry"/>
                </mxCell>
                <mxCell id="29" value="parentScope:GO(0x100)" style="whiteSpace=wrap;html=1;" parent="1" vertex="1">
                    <mxGeometry x="440" y="310" width="150" height="30" as="geometry"/>
                </mxCell>
                <mxCell id="30" value="函数的执行体" style="whiteSpace=wrap;html=1;" parent="1" vertex="1">
                    <mxGeometry x="440" y="340" width="150" height="30" as="geometry"/>
                </mxCell>
                <mxCell id="33" value="" style="shape=image;verticalLabelPosition=bottom;labelBackgroundColor=#ffffff;verticalAlign=top;aspect=fixed;imageAspect=0;image=data:image/png,iVBORw0KGgoAAAANSUhEUgAAATsAAAFRCAYAAAALswr7AAAgAElEQVR4Ae2dT28USZr/973UoX4HXFpBS5Z71Gv70IAFFu1lWMTBvWuEFli8c6IlTzMeDisOKwEHC8mjPvgCLFL7wMCMdg8YseqRfGZRX+aA1BKaMy/h+emJzMh8IjLyT5UjM6MyvgerypWRkRFPfONTzxORlc/fjcYTwh9sAA1AA0PXwN8NvYPoHyYxNAANsAYAO3i28OyhgSg0ANhB6FEIHd4dvDvALgbYrb6h4503tBtDX9FHfHmVaKAf2J3eoLWNa3TmVODfNgoSH+l4R/99oP0vAm+za6DnAHaLe59p66X4e/qWFlx9aeuzWwd0+PwhnbXqv/HkHT261c6Yc92Hr1/RvYvt1A9v1rRrp7AbL12jtY3rtHb+HJ1ZCRx2X/xIR8F6Q4/pxZ0fadOamPMq7oXdT7S196xHj+Qy3XteArWLD+nAAcET27qtegeiiRPb12GHTmEnO7AwD7DbfNzjBDS/laTtRuPhwW79ZlV/Wz5W4tVpm7fi3THsntwNVF8t29sBIm3rNl8BO9vwyqPTYav5enRpW4lz89KHJLQVMMw+2xGhrg6DlRf2mF5k4fBHerHqFtTupn3Nx7R/R6+3bdP+HfN4VYidt4nP0XW4r2uW/Ui6r4n4dNuTvhltFDaYVqjKo5Oha/b+E61esNp5870Z5pZ6gs9oPauHw+L3tGiPsfU/w+zg/uVy8NTAcNp+q/KAXbm9rfGZyb6OOgA7h1GUcRl6VRO55PjupoCdqpu9sA90JCFYEiIzREzITCgBiw2qaT07hpVdRw4TdQ2rr+7PPtDRHdnGBL5l4G4qUoZelWenoGit4bk+G114S1dfWqB0fWaM+V16VLduxmCqK2PUmdu21AaAHWBXKo5pxXTS8iUwy9pXctwJOwm6tF3sSRmQWH1TAF12rUJfPMKupB98bbsvLhiPKs4vb78Jg2rYPaN1C3S6Xvu8xT0LdNpuDLwyT1CB7IBu6LLOVwZiyZqes7zZP91e45W9RYSxnQIPnl2ZWOsmcclxGxBl62s27Oz/jYlRaKM/2FVe1wJwsW8Tah12N9/T1d0H7klhQKwciqPxA1p9WhLO9gC7ZBe2DrANgFnQBc6pmjeAXZlgSmCWGbPkeBEIbjDZkLH/z67jbJ+7zvJzysPYyusCdilkG4S6znGqgA88O/cX2LR2nKI8YFdmrBKYZUBxHuc1LNeaXfE2kQJkeDPDWjfLrlVooz/YVXlmNrjt/1X7nHaomOSFvkzIDkfNfpd7bPZ5M4Wx4wYga+T9TdfnEdbsADtT6FMKyDGRZq6vdhKztyTBZu5Y5td1g6kAu3Gy2G9vUCgY7di7t0Wocn3lO67lnh23k9fijPVDtqMDvv3ALoFhIZTlENZey3N9pkLYkrW8VC/Yje1xnvmcszV1derZZTcV843Fxl9ANxjr20XEbSL69g4nELJy5m0ZqqxRlwZjAjVdpw03tQua1VlxywjDWJazbzK2j8uyBqRZ6GabVNuM+jTIk9tedJsTwKa3whjlm02ewq8msltGiutrxbLFMuoLxr5F5eXnyp1edU7NrSW4z67ZeOZf8GGW7xR2oRsD7QtTpO2PC35B0b6N+9cWYFfj+sYgAvRxQqMS764Vr06Ez/htbHcQBOwAu84XigHX7iY4bJ3bGrAD7AA7aCAKDQB2EHoUQoeHk3s4sdoCsAPsADtoIAoNAHYQehRCj9WbQb9zjxawA+wAO2ggCg0AdkLov1o5T//v1JkoBh7f+Pk3PmwRhy0AO8AOcBcaAPiGCz7ATggdnt1whQ6IYWwBO8AOnp3QAKA4XCgCdkLo8OyGK3RADGPbPexUztj8qSdLp8MZBMAunLEIBU7fPP8t/eEvv6U/PD9Lo/FZ+p7f/+Xf6ea/lNjqX/6R/lOVSc/7y2/p+9+XlBVftDP39/dbSfv+skXfjCek2/ufT76Ex27Zt1vYKdBtiOTHy7S0cZ1CAR5g1+KktIQ38+TuuJ6lJ/+uYJLAQ8MuAUuxD3y8AoRttF3D9X/+kZYE7FoFbBv96KDOTmHnzBV76hytnj9H4w46WxSnObkBO9MedfaK4njqOSXw+JJu/s9v6Q8pWIr9P0vflx5ry7YpgJXnOaEEzh0DN4C5WxyLor07hZ2zQQOGnfFwyx2dgtB8EGb+dGH784/ux7SLh3ImD9EU5zV+rLsWwtf00/Z39Mv2bXp5ekL7V/h9+nfl60IYtLN2Oz8uzkvG9Ut6uZWc+9PaN/SzOJ7Vu/UN7RgTIz9HX/fntcDCLwW7HB4qTEzBkutZe3x56KpC3yz81fbm1xSYWaib153Xl5TXXqWuyx2aJtfOjqn2lnmeEzp7/xUdvn5Hh88f0lljLGQbh/m+d9gtrAw9jGUYFXO2KhDWwEmVKXkCMB872nxj5KPlzwpPU24g6P0rt+nnre8oB00CoZ++qhN9AktZLgFiAs/R6RR6KTgZenXXUGB0gNYGQeH/f/sv+qf//qnyb/Xf6vrjOK7CxBweDLsMLAXb1nl2CZjMENP1Wbr2ZkHVDdoEnlmdDLsK7xKwKwyaY9BbKMOPaV9dWix4EAUht3Bt1zXaCmOL+VaLOSRc7Ukel14EJZdVIHRA1F1P9XiaEErLMqiaQOerbwXAJsSwy+HHMPyW9vX4ybLyvT6evu6sfas8zVn60u851bBjTy2DktFn6zwGrAU63a9vnpd7groMXt16782zU/koVpaDAR0LpC3YqeQ10kPj3BTy/1T4xfwT5TkolGd3aduL/diz4zDWmCQu2GlPTYe66WvurTWHXTEkFiH09ncCmFa7DEiEdsyCltFW9sByD9GwtdpYyCFWDsUJjX6/VeFZhmaPsNrTC+w4dF0LDHStwk4ltNEJd5JsXjppjRa9Al0hrGUPsNyzs+vQdU372gh2CnQOKFoeWlPPjstJSE7b5kL5tsJYA1h1kxewK4zLVPars+/JjncOOwZdSKGrHJzWPDsddjLM1AaDDTB3usW6MLZL2JkQE6KbEXZqPa+wYSHqDWiSSI1Uv6+CXbJT2m8YmyQW4g2KR7fm3dbTt79D2C3SmfMu0C3TUhS3niQbFfuc39XpweWen5pQ2a6rDcZkkDsPY7/6ln6x1vD0Lqv00EwoVqzZjZOQ166Tdyt5Vzdf95te1NVAarO+atglNyUXQ1neeLAh6PqMQ9jk5uYZ+8BJhV6/o4P7l80li7n8YpneBh3CLrmB2MwXm/6SIgrYJeHrcSFnqx40cQuJyvHKkNP5XHMQJhsTaa5WIxesG4rVE1/fepKsl2loMbD0rSC/CO/L+Hw73VllCPLa3ZX17NaT5H++dUXXn4a/Wdn8tha7Tj537kCnb+zNbifJb0Ep7Nw6yhbKKPjYt6hU3d+nNVT9ypnSYrzlRM+BDmFXPRC6QX2+thnG9tkvXDt87bU/Rnfp0etXdO9ivLYA7IQLD9jFOxHahw1s27eNATvALsr1m74nHq7fPfwBO8AOsBMaAIS6h1BXNgfshNARxg5X6F1NKFwnXA0BdoAdPDuhAcAqXFiddGwAOyF0eHbDFfpJJwrOn39tAHaAHTw7oQFAbf6hVjaGgJ0QOjy74Qq9bALg83jGHLAD7ODZCQ0AfsOFH2AnhA7PbrhCB8QwtoAdYAfPTmgAUBwuFAE7IXR4dsMVOiCGse0edpxgZyPPGxvSs+0Au9gmxAr98Yd/pePb1akB/uPev9L//ZD+PVyjLfEFCYjOj2Y6hZ16FPuGzBubPOMOeWPnRzCDmNz/sEbHCl6bdHD715Ww27q9aR6/8mv6v3srCP3nEPidws45UQacStHZ3zkUyaD7caUKdiv0R4cn9x/3NungH/AFNW+6AOwEfHyHsfaDNgt5XrOHdPLEsR/e2UXe2GTC6icOZw/slBnBhH1Y3EZZ9WBP6wGdqvwc5IPV/fIKu/yx57E+DThkAPYMuxjC2PDzxhYEWpJcp5BykZ88vMU5Z2Xya/dj1RUkrce6F66rASRf206kUwm7CXEY+8cr0otboT+WhrGAXaMxlePb4ft+YCc2KWLYoAg9b6xLoGYuiQmpBDkuWCngCdhZCXhk3UHmg62B3Wi8SAcPxQbFDwhh5ZjO0/t+YJfRvCwJj/wm7e697zA2E4KdJ9b+P7VHX3ljRzo3hJUPVuaCKMAvG8Ov6Sfh2blySuThcYD5JWpgxzuxBc/OsY6XjXVml+50i2s3s3XPsONGMvDkDm2zhrcxwK3BLuS8sQp039K+NUltuNn/5/Yvwk4n7snLnGBMew1jsUHhZQwtbfVVZyCwu0ZnTp1gQngyZnuwm5DarAgwb6wzQXaa5lB6do3DWF7vE55eX8JufN1Kz869Prd1+9fu3diLD+ng9Ts6fH1ANzxpsnE/cL3a24E6hJ07ZOWk2Wsry7UN7WLQ24Rdstv6hkLLG8sem+mJ5TupBuzSnVjjMwU2e4NizvLBVsJuQsXbTNzeHutTpSqMPINXF/N01mt0CLvEc1NwE7+gCAV0bMB2YRdi3thkTIzbSdK8rXrtrQyEyToch79mGKuFqM8Pcr0uu6lYbjwk74u/pkh+ZZH9gqJ0g4JTFcabgFqPe8ivncMuZGO0DbuQ+z5729ywm72+/pczZmr7rYOoE1DPZLOOQ2/AThgcsJseNMUwePo65mGioI3zP66AHWA31XppITx13XsnbApIzD8khjKGgJ2YmPDsMDGHMrHRj6KWATvAbirPDpOoOIlgk/mwCWAH2AF2QgMA13yAa5ZxAuyE0BHGDlfos0wOnDMsPQB2gB08O6EBAG5YgJPjCdgJocOzG67QpejxPs5xBuwAO3h2QgMA4XBBCNgJocOzG67QATGMLWAH2MGzExoAFIcLRcBOCB2e3XCFDohhbPuDXfpo9hgey46JhokGDfSvgd5gx496Wj1/jQC7/kWAiYgxiEED/cBOeXUbtHB6A7ATYXQMgkMfAda+NNAD7ET6RMAOmwOAPTTQkQa6h93pDVo7f47G3EHADkLvSOh9eRO4bjiebMewW6alDZFcB7AD7AA7aKAjDXQKu/HSNTO5DmAHoXckdHhY4XhYfY1Fp7ArJNvRiXeiyC4GsfUlclwX2mMNdAq7gujg2cGzg2cHDXSkAcBOGBq/oIAHUPhCFvrAsfnWRz+wS389sYYwFt/qgAk00JEG+oFdR52b9psYnt18f3NPO94oH9d4A3YCvIBdXOIH7OIab8AOsEMYJTQAAA4XgICdEDo8u+EKHRDD2AJ2gB08O6EBQHG4UATshNDh2Q1X6IAYxhawA+zg2QkNAIrDhSJgJ4QOz264QgfEMLaAHWAHz05oAFAcLhQBOyF0eHbDFToghrEF7AA7eHZCA4DicKEI2Amhw7MbrtABMYwtYAfYTe/Zrb6h4503tCtsB5gAJqFroGPY8WPZr1P2tJP0fSjpFFv37L74kY52PtKx+HuxOoeTJEDYLe59pq2Xn+nq7oPp4d0GtC8+pIPXB3TDqvvs/Vd0cP9yO228dUCHr9+1V7/Vl9DhZreve9jpZDsBGq5d2D2mFzsfaP+LMOG2uxlu22zRlv5/830wsLvxpAw6d+mRA4KlfWo8Ty7Tveev6N7FMPV18v6dvF+AnRBT67C78yNtiuuFIADdBsDu5JNJ23JU4tXp4+14dwy7oiepr4nXzh/LvkxL0Xl27NGZoWsWxm4+TsIZFRZ+pGMJQ/3ZzkfKQl39mSpn1puVsWGqz9FtuPMj7V76kNW5eemDEVZnbdv5SEeXto1wyyxbs2ZnX1f3VbVvm/bvJDbhdhv1ShvYfan7X3t2F97S1ZdJWMuh7fpNC2TW8dLw9+Z7FRpndYjzqsJlhtnhk7uG7QzY1MDQKFvX5+w4YFdnt+49O3vNLiD49evZPaYXjonOIDBBxuU+0JEMidVaoAM+DBy7zhRCZp0Tms6zY9A6rpdOPAUv67plnx3d+UDHAoS7m0XI1ok4O86w23tPV1++p8UMAg9o9akDeNnxBIRqzW/vmRNQfGx9j8GX17u494lWL1gQVXUydN7Ro1uuY/ozDmXryuiyTV8Bu0wH1tjqzzuGnWPgZNLskkbqxrb9Ojewk6BLbeaGYvOw2R/s3NDmsbPbqAAoQJeMb/n5teOvPLEcSHn5Z7QuQJV/LvX4jNafvqUFhwYVCEuOFetikNWtnSVA9LtR0dZaoLTRfL/vH3bjCS2siMTZDrEVBdWO0ecGdpbXxPaxQTJib68AknK7eYPd6ptC+JuNn9WmQpvV2J8MdmXhpemJJd4eh6fGXwnQlGdnh8KlOu0BdukubLU3WT722fiU9mkY5wJ2YoABu6airghjg4ddAroiFKs9u8K6n9CNCYvmsPMLJ3h25jgUtRwA7BbpzPkNZ/hQ13jfx0OEHa9hmetrbs+n6CVVAMkxUb15dmN3+3is7Dba/yfjWX5+7XhzGOv0zkQYy5sMzrU5X7BrumZXF+oWJ2t1/7FmV22fTndjGWrXyb6BeGHlOq2tLDsXhusa7/t4v7BLdihzsJk7lnlf3TBwgYM/K2xQjNN6rRCXyxq7r+kN0Hl75OSrBmmhLoYr12eF3642jypgmdtAtkW85w2Kp58s4NkbFAJ8Gvp619UJyglNF8ZOCLuxYky0jQN47dyzU3ATO7I2/GoF3aLRWoFdCg15S4d+b8CF+2WVZdAoYOnbQIzbOfRNwDkUud5CncY5+e0eRTub9RzbmyBW23Qfklfdllzk7JGaZeTurXUtDV6jrbJ8Xm+x3ckxtYmgf0Gh4ZWuyRVCUHELiVqzU5BjCPIaXr7Boes01vW4TAkUs7bV3FqC++zqxzOzpcf53jns2uiErzpbgZ3HwfLVT9TT/mTDLyjat/G0OgbsBIwAu/AEOq2ggylf4t2149Wl44bfxlYuhwF2gF2lQIKBhxgntAlfSrNoALATkwieHSbRLJMI58yHbgA7wA6endAAwDUf4JplnAA7IXR4dsMV+iyTA+cMSw+AHWAHz05oAIAbFuDkeAJ2Qujw7IYrdCl6vI9znAG7FmEHeMY5qQDTMMcdsAPsEMYKDQBUYYLKx7gAdkLovj0x3/X5GHDUMdzJjLGtHlvADrCDZyc0AGBUA2Oe7QPYCaH79sR81zfPQkPbhwuReRnb/mB36hytiqefLJ3uXwy+4eS7vnkRVeN2/u46/e1/76V/v6E//XNXGtBPOAkg12zJb2gb21B8WXd7zvw9LLQX2CWPeQrjgZ1SIL7h5Ls+2dZhvf8V/enPXcIuh+rC7qdec82WPx0lb2OoY93qQw1agHj3sDu9UXiAZyiD6RtOvusLxU7+2xEp7ObWq9Mgni/vrmPYLdKZlXM0boHaPiagbzj5rk/28YenOvxLXv+6d47+9Ofr9INl2+/3fiNCxXv0171fiQ2Jc3SswsjEqzLqfHpOlNPinpBZH593jo7/fJm+t647MkLUe/S3kvqSPtXBjo/b/ZX9yNsnbdTkfb1nZ4a88uGeRv3WA0H5gaFct3rwp/Mx8GVPNP6aftr+jn7Zvk0vT09o/wq/T/+ufF0YE+O4Kvct7WdjIepa+zath49/SS+3yurU5+TX/emrcvs29kzTx08dvu4vkXe3sON1On4Eu7FeF0446xtOvuvTk4uhZEJrQgmoTNipzyzIuD/7Df31z7LOBC7HvzNFrkBn1JfC0oKdKtfgM92f0bgKdu62uPqR12e2u+rzStgpgFn5YUs/y59wPBqnSX2efiom6M5AVJ2rYv/Kbfp56zv6ee3LFHAJoKrAo/p5+hv6OQWl7ncCxBSCXyXQS+q162TQJZDV545SMObtMG2rHkH//CGdzfplHs/qiRN2G7S0IVInKvCFATzfcPJdnxLO764XQJcJSgruny/TXw0w5SL84am5PsbgsOE5cpzPECuUk9dU70s8vXHiFdoATdpeAbuK/n6/d/3EmxpVsDPTL+b2GzHwhLfmLmfnvhDnKztVZyFjQBUAwyBzeHf2+O+s3SYJRQYne4mqHNex9Q3tpOMmy8r3dp37V6THKPqiINaft2a3s+r/bj07Toi9cZ0KO6+nztEZPRiFySMM2/Ix33DyXR8PJAPHDQzTTpXlLIDY8FOCccCOP1ceVbaD6oCkVbchvpI6qzw75SWK6+W7t0lY28QWRhssDZXDrjzbWOK5aU+uvBzXXch/kV2/DnYCUPocF+xSTy0LddOQdxbYFUPiPJTVYXXBloCdOfEyA5V5cYFsWviGk+/62I6VENOToq6cBaRpYJeNZXqtQjhp1W2UnxF29d5kid6EPYx2iM/nGnYKdEWPy/bQmnp2DDsJyTKbGZ8z7JqEscLmxvkdft6tZzdO0ikWPLvTG0Vvr0MjaOP7hpPv+lQ7eeG/JDzV/VCvpWBh78wOY83/6843rjPmdTu5Vug5jOV+WOt/5vVnBx3XUw47TqForddpTXoJY+vX7LLQU1/X8uwMiOky4wnNCrsRw7NBmCztr9bsntwtbJzIMvyeNzIOX7+jg/uXa8va5/r6v2PYTdLNCbFGV+bticHz1dm6enzDyXd9SfuTBfuCt8NQ+N97RojLXlchzHPA0oafuk4Blgw1BxQd9bH36WxfKbQq1uxSL7UIePfGhWp7thhen4i6CnZqba6QNpHX4iwIMvyscpyGkXPYloexZbuxCbydILNgx1Az1/XyXVbpoRl1VazZse2ca4Vj18ZF0s5Gu7HqFpt3dNgAionGT/YFVlZH97BjiKVrd7x+tyY3K3oAnDSMbzj5rk+21V47+5vhXWmxJEAw1rkM4OhbT/TtK8ntHMY6WVbeLJvVmR3X10xe69tXUl+6PmdD2mhTSZnMPjWwK80HyzlhxcaDqs/KQcu3kjgBZpW7uvtAeY3OslrnzvvszFs/NMwYbNm6nNhgsNfZGHK67M9r6+ltLMnam6qLYSduUcnL6l1f63YXVdaxfqj60Ow+O+X99XjLidZFP7DTgx3Yq284+a5PDxpeTbCGao/qDYqkD408o8DmibZ3s19QVIfruq4uXgE7ISTfcPJdXxeCwDV8gZRvRtY7thV1Or27ivJCr/2OVTOvrt82mnYE7IR4fMPJd30hCQdtMSfSaGz/0sJa1xM6g+1s23XzP2AnROgbTr7rwyTpZlLAzsO0M2AH2PV2KwCgMkyohDqugB1gB9gJDYQ6UdGuk38xAHZC6L7DTt/1QfAnFzxsGK8NATvADp6d0ABgOFwYAnZC6L49Md/1YSIOdyJibNsfW8AOsINnJzQA6LQPnb5sDNgJofv2xHzX15dIcN3hAiCmsQXsADt4dkIDMU3+2PoK2Amh+/bEfNcXmzjRX3iUPjXQIeySZ9klTzrhp52IP85LIaDT13vfcPJdX192ae26RlIex+OjWtOE+dMufkJJa32s60Nwv42dv9+8Nh27jmEnnmOnRcDPswPs+ptsehx6fa1+nl1TMc9SrvJ5dh3YJMSnnjR7msn8eZ0dws5tnPHStSCeUswTxbcn5ru+WSbzfJwTKeyC8+r0HB2md9cz7Di0dXh7HXyjuiDgG06+65Ntth+OibyxeqJO91rv2Zkhb/t5Y5P22w/l/GW7mGsi0UP+dGL1cE9+rLr1gM6knPlQUC4rn2YstcXvG3uc2YNSw88w1i/sAgpheYB9w8l3fVqQDDr7secJ/GQuiDQTmJWvQpUrfIa8sdq2xmtpjljr8U2qnHx23cnzxhrt4C9/BTD7icF23tf0KcVbt62Ui67Hqifn6ich29dTTxdukkgHsGv27coh7OrSYjDrVb7h5Ls+Jciq7F3SIy7kkMjHxM454YIn8sa2nXCHQ8X6HBkSQvwIdcMb++pbKwdFMsbqUesicU7hPKGTIeSDlTaqet+jZ8chrEiWLQagqsFtHvMNJ9/1cd/7TqWYeJBJzgrOQ2F7mKMqGJcCuHzNzpV7Ist/YSUYmkUb5WFseT7YLvLGqkxfaQ7YLPeEFXoaiXTk/GEvUMCuGBIPKx9s03HvEXbLtHT+HI3lIPX83jecfNcXAuxsYRXC4hZgVwCqR50ECbtZ8sFKmzhgZ3iEsmzZew5Pm4SxZecH+Hl/sAskMbacvL7h5Ls+1VZH6kLZh+x9qReFvLGZjQLNG1vmsRXC0YZh7NDzwcrxrHrfG+wWVsIKYdlIvuHku75kIJP0iAVvh+FmhXXsddkpCTnMtHOw2mt46joFWCJvbGL/9vPGMtTMjYN8x9X00Phza9OCvcLCBsWw88Em45KvSZf93xPswgth2UC+4eS7PjmI9toZ8sYKsWc7hO4NgLDzxib9sNfZGHJq42H7OwuE1i0lnFPWCmO1buw6f9m2QJmFns3uswslH6zuX91rT7ATwswM3P9nvuHku766wcTx/jUkx4DXAyuTZE9zP9s086QEdrJtVe+b/YIinHywVX2RxwA7ISLfcPJdnxw4vA8LbMXx6C9vLHtwZrg7ja2aeXXF/k5zjX7KAnaAXTD3Oc7jBMrbbP/SwrrxWOgsP8fPpLfDU3O9z881fLe5j/oAOyFC356Y7/r6EAiuCVgMRQOAHWAHz05oYCgTG/0ofkkBdkLovj0x3/VBwEUBwyawSVMNAHaAHTw7oYGmEwfl5g+ygJ0Qum9PzHd9mGDzN8EwZuGMGWDXIuwg9HCEjrHAWAB2gB3CWKEBQHG4UATshNARdg5X6IAYxhawA+zg2QkNAIrDhSJgJ4QOz264QgfEMLbdw47zToicsUunwxmE9mCX/Gh6aA9DBEDC0S7Gon4sOobdMi1tyGxiYT2avT3YJQPBT5N4dKt+UCBc2Aga8K+BTmHnzBEbUIaxLmB3cP8y1sjE0gEmtf9JDZu6bQrYiYkH2LlFgskDuwxBA53CbjQuPqF4vLRBZ06FISbALoxxGMLEQh/C01LHsONkvxu0JjYo1laWgwnr2obd6NYBIYwNbxIATHGMSbew4/U5K32icx1PhJZdCrF12KWP4caubByTq0vt4lr1mllnWZ8AABC5SURBVOoUdk6wRbRBAc+uXpCYtLBRWxroGHau9bllWgoklG3bs2uWyARib0vsqDdubXUKu5HDi3N6ewMNYwG7uCcbYNvv+HcLu/GEGG6xblAAdv2KHbCJ2/6dwy5kwbUdxt548g6/oOjJaw9Zd2hbNxAG7MTkaw92+G0sJnQ3Exp2LrczYNcJ7MoHAOKEbaCBbjQA2AF2wdzUjUnfzaSP1c6AHWAH2AkNxAqCGPoN2Amht7dmh2/sGCYT+hi2zgE7wA6endAAgBU2sE4yPoCdEDo8u+EK/SSTBOcOQxeAHWAHz05oAGAbBthc4wjYCaHDsxuu0F3ix2dxjTdgB9jBsxMaAACHC0DATggdnt1whQ6IYWwBO8AOnp3QAKA4XCj2ADtOp3g9e/LJ6tJiMJMNnl1XQn9G6y8/09bLT7R6oatr4jqxg7xj2HGe2OskAbewcp1CSZQ9P7B7TC/u/Eibc+6RLO4BdrEDqMv+dws7x8M7R+NFOrNyjsYBTFzArlvvB7Dr1t5dgiXEa3ULu9MbhlenDbKwci2IdIqtwO6LH+lo5yMd73yko0vbNBo/phfp/8ebj80QfvWNKsdlk783tGt8CWzT/h19zH79QPtf6Mmjr+H67COZ1xV1pt7i7qauW1/frC8/btelr9/sVcNuYfcTbamwlkPb97Ro9HlCowtv6Wp2nMt8pqu7D0zb8Tk332f1rN80z3OWH9+lR6/f0eFrPGdQz8Uhv3YLO6dnN6FQQtlWYJdO3M1LH+ho8w0d7eQA4s9erKZgYNDZoakCZV4+F2KzMHZ303Eu12lDltvIn995Qy/uaCinn4myXN+RPD5OQJn1wYZUzf8Mu/W9T7S19ywHlwKbA3hWXYt7n83zxHE+tr7H4Mvr0WDNbch2B+xMezT7kprXc7qFHYesxppdvlkRwrpd27A73tGeki0qhkbZscf0QgAnEVpLsNv5mMNXwEOLmz26xDsV7S+Dp+N8XY9+LQUWe2gSgM66ntH607e04Dim6i05pq+NVzGGDhsO0T4dw44NnABP56FgyIWSdKdt2BVAkYlMh4k6fLRebY+PQ+HCZ0XxTu/ZVW96TFVf1rdiu/REcntbXN4G2QNafZqEr3m4+5m2SoCmPDsOYxu0AWXisVMPsCsad9BrdumEU2GsWrMr9j9Zxyvz7ErKRwO7BHTFNTcbiLmdALvcFoB5bov+YVeyjtfHIPXn2U2IQ8Tma18n8Ox4bbAQFus1u649u4qNBh3G8hqefm94ah5gd+tAbU4cPn9IZ4268wnShw5xzXbs3y/sGHQbG851lz4GvE/YJd6dY0PBtXGhNgbMsuw52muC6jMBtqRMyQ6q2qDoGnaf6OpTC3iFDQq+ATnfaFC60LuuJwpj0yRIrw/oBkAXRcjfLewU3PJfT6wFBDqeRG3ALgNMdjuJXo9zha2OtbuycJXhJOt0lhO3lXBZBp8+T5fX/8u60ve5p2m2S689Gn3T9TUCh/kLCrWhkN1aYoGN67NvPVGQ03Xk5c16xBqfC4oXH9IBbjmJAnLaceoWdo0mQjsurO5w1WsbsKu6Ho71N9acsPzwyd2oJnvsegPsBIABu/7gE/tERP/b1x5gB9jBuxEaAHTah05fNgbshNDh2Q1X6H1NMFw3HE0BdoAdPDuhAcApHDj5HgvATggdnt1whe574qC++dMKYAfYwbMTGgDE5g9iTccMsBNCh2c3XKE3nRAoN1wNAHYCdhD6cIWOscXYAnaAHcJYaCAKDQB2EHoUQodnB88OsAPsADtoIAoNAHYQehRCh2cHz84v7E5v0NpGXfKc4pOKwxNimpsAPxQHCPFlOBgNeIEdP1ZdPWb9/Dk6U5MpzEyuw+Crg2N/30g3nryiexf7u354XwKwBcZkfjXgBXZSAJWPWD91jpaWFq1vimVaWlm2PgvDoDeeIMWeHFu8D0OXGIfZxqFT2LkT67B3F87TiqWQALvZRCVtiPewYSgaAOwq1mQAO0zUUCYq2nFyLQJ2FbDjp9k+unVyI0OosCE00L8GALsK2I3GaVIW7MoGuaYKgPQPkHkaA8CuAnbw7DCZ5mkyo63Veu0UdiPXbmxAeWNtsWDNrlo8tr3wP+wVsga6hd14QvatKfb/IRkLsMPkDUmPaMvJ9OgFdtlNxRsyJyy/d90wvExLotxq4b67k3XIpyAAu3DGwue4oq44x9UL7IYpHt6cwC8ohjm2cU722McSsHNuUOC3sbFPDPR/eF8IgJ0TdsMbaExejGnsGgDsADvcQwcNRKEBwA5Cj0LosXs16P+EADvADrCDBqLQAGAHoUchdHg2WLME7AA7wA4aiEIDgB2EHoXQ4dnBswPsADvADhqIQgOAHYQehdDh2cGzA+wAO8AOGohCA4AdhB6F0OHZwbPzC7tGeWMnNGpaDiACiKABaMCTBrzALnvEU03e2Kbl8C2Mb2FoABrwrQEvsJONavowzqblZN14jwkADUADs2oAsPPkIs86ADgPkxca6EYDgB1ghzUhaCAKDQB2EHoUQof31I33FLKdATvADrCDBqLQAGAHoUch9JA9DrStG68TsAPsADtoIAoNAHYQehRCh/fUjfcUsp29wC67WVjkg11T7828sU3LhWwwtA2TBhqYTw14gR0Gfz4HH+OGcYtJA4AdwliEsdBAFBoA7CD0KIQekweDvro9dsAOsAPsoIEoNADYQehRCB3ejtvbickugB1gB9hBA1FoALCD0KMQekweDPrq9mIBO8AOsIMGotAAYAehRyF0eDtubycmuwB2gB1gBw1EoQHADkKPQugxeTDoq9uLBewAO8AOGohCA4AdhB6F0OHtuL2dmOziF3ZN8sGqMtcpeSrKdVo6jUGYXXAPaPXpZ9p6Kf72ns0lvBb3RB+4P0/f0kKXX0S3Dujw+UM6a13z7P1XdHD/8lzadHZdDXNOeoFd9uimmryxSXLsDSHiZVraAPBmFSUD4urug7mfiAu7n2irV0hfpnvP39GjW65JfpcevT6gGxYEZx0znOeycTefeYGdHMCqfLDOY6fO0er5czSGmKaG1uLeJ1q90I1Q5Bj7fs+wW7/ZYz9KvDrdT3h3PY6NRy50CjstHuM1INjtbn6k453878XqhEZf/EhH4rPjOz/SJg+A/fnORzq6tF0EliiXHH9ML3R9m4+L5RsMbiHky8LY97Sozn9G6+qzBIZG+V49KHPSKI8ua7sMY10Q133S5XRfzTpH46bl8vNuPHlXHapefEgHjby7xEM8fF1TX4MxNuYIys80T2wb9g67hZXAwliGkwaaEBmD0Akzq8xxCcA2L32go803dLTzgfa/SCYaf6aAKuqwB6jq/zrPjo9ffSpD3WSNbxYv6u/3f6J/+u+qv/+iv5+xH7We3YW3dPWlBcCTfGa0k8PUV3TvYg6/os25TFmYK88D7Iq2k/bp932vsOO1vtWlRS/U9mfkbdq/89GCEHtjb2jXmCSugXtMLxyg5LYx2I4b1eGq1/1ZPewk6NI6GBIBeXdsmzrYlfbT6kvTcoZWGnltCcSwUeHWoWHP2jnSXx29wU5taqwsBwa6ZCAUmISHZv+fDG4CRRn2qvcVsKvzDKcVTenkTgXnPG4BYtprtlG+GnbPaL10Z5Y9VR3ONi1nTTbALsg52IbOeoEdh65rgYIuMbL05FyeXvJZEV7Vnl2xvDXxpvxWdMJM1OE8PiPs+gtjm0KsaTnL5lPAzr1ba9Un7N/GhEWds9u7c9gx6MILXYsGzNboVt9QtimhhczresLzywU4XNjlfSza6qTHqj27CTmhzWNhgbtpObO9Tdfs6tb1JjRS4HxHh402M/zb0ewX6rft0SHsFunMeRfolmkpxFtP0o2KfefGhPT8UlExFHmXFWHs1GFRHewU1AqhLIewjk2LJuX0l1b66ms3lus5rN3sAIRsCHX1vxfYZTcVV+aNTW4g1r+cMF5DhN1Yr8mVbEyIW0pyyOnbSvJzko2J/HaWfI0vLzPdYDt+NaFv38gmunn7hb7xmKGS/doiK9vf5DNuidF9UK96HU607eb7vO1pWeeuctNyEnhe7rNLdmyxiSHGTNo4gPdeYDfdZA3XGOhHrGPj4RcUNcCEtvrXFmAXwDcOJkL/E2FUAiv8eiKAsfE0RwE7T4YEsIYzKTCWwxxLwA6wm3pDATAYJgyGPq6AHWAH2EEDUWgAsIPQoxD60L0W9K/e2wbsADvADhqIQgOAHYQehdDh+dR7PkO3EWAH2AF20EAUGgDsIPQohD50rwX9q/dcATvADrCDBqLQAGAHoUchdHg+9Z7P0G0E2AF2gB00EIUG/MKuSd5YTrAjno4yD8+2G/o3HvoHrycGDXiBXfaIp5q8sUk5mTc2ecYdEmVjssUw2dDHfnXuBXZyEJ25YavChIBSKcp+4H2/woT9YX/fGgDsqkCMY1Gs5fieVKgvTFD3DDuEsZgYYU4MjMvwxqUf2IlNCmxQDE9UAAXGNEQN9AO7LDwsS8IDsYQoFrQJupxnDfQMOxYPA0/u0EJQ8ywotB36DVUDgcDuGp05BZGEKhK0C9ocggY6hJ07ZOWk2Wsry9j1y0J7TKwhTCz0ITwde4FddlOx+GVEkhe26LEpuMlyAB1AD9BDAx1owAvs8C0W3rcYxgRjAg2YGgDsOvhGgehM0cEesEcfGgDsADuEUNBAFBoA7CD0KITehyeBa4blwQJ2gB1gBw1EoQHADkKPQujwssLysvoYD8AOsAPsoIEoNADYQehRCL0PTwLXDMubBOwAO8AOGohCA4AdhB6F0OFlheVl9TEegB1gB9hBA1FoALCD0KMQeh+eBK4ZljcJ2AF2gB00EIUG/MKuSd5YLaz00exBP5b95nvaevlZ/H2i1Qsevq0uPqSD1wd0Q9sifT17/xUd3L8chfDg9XjQkaUf2LTapl5glz3iqSZvrBwMftTT6vlrFCzsLrylqy/f02ILgrrx5F0J1O7SIwcEpd3wvlrQsA/sU6YBL7CTlTfKG6u8ug1aOL0RNuz2nvn3skq8Om1DeHeYrFoLePWrhR5gJ9Inhgg75dHJ0DV/f3X3gYLfwu6nJLRlGBrl68Nchtnhk7vlEK2BYT4BLtO95+/o8HWZl+hXKPl1US9sMZ8a6B52vK53/hyNOTwMEXY6bGWIVXl2fPzpJzPU5TW+p29pQddReE0A9ehWlVg4lH1H1WX4fMAO0KnSEY7Z+ugYdsu0tCEe1T7vsHOs6S3uVXl3DLJXdO9ilRATiGGjospGOGZPZPxfr4lOYac2MmTOiXmHncPzA+zqRYeJCRv1oYFOYVdItqMT70gAFkK/noTRJIxtEXb1YWxPdgllfNCO8nVf2MZpm05hV6B5dJ5d0zW7ulB3QiO1kcEbFMX79Qp2hvid4oed4vrCBOzKQNCKZzchX7uxfK/eYe36X1xiBrww3lUa8AK77KZiHZZmr2IzQkIl/fVEkls2sCTZhV9N5LeerN9MxJTdeqJ+XaFvPH5G6+LXFrpswfg1t5Y0u88u2bHFJgYmd0Ffcp7hveHRe4EdDD7dpDvxLyhuHdDh84d0FmI2xAwdTqfD2OwF2PUBjBLvrplXB0HHNknRXz+aB+z6gB2uCY8MGuhcA4AdRNe56OCp+PFUYMfp7AjYAXaAHTQQhQYAOwg9CqHDC5rOCxqivQA7wA6wgwai0ABgB6FHIfQheiro03TeKmAH2AF20EAUGvj/A9MGhwu/+e4AAAAASUVORK5CYII=;" vertex="1" parent="1">
                    <mxGeometry x="-110" y="111.5" width="315" height="337" as="geometry"/>
                </mxCell>
                <mxCell id="34" value="name:undefined&lt;br&gt;age:undefined&lt;br&gt;bar:0xb00" style="whiteSpace=wrap;html=1;" vertex="1" parent="1">
                    <mxGeometry x="760" y="140" width="120" height="60" as="geometry"/>
                </mxCell>
                <mxCell id="35" value="foo AO 0x200" style="text;html=1;align=center;verticalAlign=middle;resizable=0;points=[];autosize=1;strokeColor=none;" vertex="1" parent="1">
                    <mxGeometry x="760" y="120" width="90" height="20" as="geometry"/>
                </mxCell>
                <mxCell id="41" style="edgeStyle=none;html=1;exitX=1;exitY=0.25;exitDx=0;exitDy=0;entryX=0;entryY=0.25;entryDx=0;entryDy=0;" edge="1" parent="1" source="37" target="34">
                    <mxGeometry relative="1" as="geometry">
                        <Array as="points">
                            <mxPoint x="420" y="70"/>
                            <mxPoint x="670" y="60"/>
                        </Array>
                    </mxGeometry>
                </mxCell>
                <mxCell id="37" value="&lt;span&gt;VO:AO(0x200)&lt;/span&gt;" style="whiteSpace=wrap;html=1;" vertex="1" parent="1">
                    <mxGeometry x="270" y="220" width="100" height="25" as="geometry"/>
                </mxCell>
                <mxCell id="40" value="return 0xb00" style="whiteSpace=wrap;html=1;" vertex="1" parent="1">
                    <mxGeometry x="270" y="245" width="100" height="30" as="geometry"/>
                </mxCell>
                <mxCell id="50" style="edgeStyle=none;html=1;exitX=1;exitY=0.25;exitDx=0;exitDy=0;entryX=0;entryY=0.5;entryDx=0;entryDy=0;" edge="1" parent="1" source="46" target="18">
                    <mxGeometry relative="1" as="geometry">
                        <Array as="points">
                            <mxPoint x="440" y="240"/>
                        </Array>
                    </mxGeometry>
                </mxCell>
                <mxCell id="46" value="" style="whiteSpace=wrap;html=1;" vertex="1" parent="1">
                    <mxGeometry x="250" y="90" width="140" height="100" as="geometry"/>
                </mxCell>
                <mxCell id="47" value="FEC bar" style="text;html=1;align=center;verticalAlign=middle;resizable=0;points=[];autosize=1;strokeColor=none;" vertex="1" parent="1">
                    <mxGeometry x="250" y="70" width="60" height="20" as="geometry"/>
                </mxCell>
                <mxCell id="48" value="&lt;span&gt;VO:AO(0x300)&lt;br&gt;ScopeChain:AO+foo&lt;br&gt;&lt;/span&gt;" style="whiteSpace=wrap;html=1;" vertex="1" parent="1">
                    <mxGeometry x="270" y="100" width="100" height="55" as="geometry"/>
                </mxCell>
                <mxCell id="49" value="log(name)" style="whiteSpace=wrap;html=1;" vertex="1" parent="1">
                    <mxGeometry x="270" y="155" width="100" height="30" as="geometry"/>
                </mxCell>
            </root>
        </mxGraphModel>
    </diagram>
</mxfile>